<?xml version="1.0" encoding="UTF-8" standalone="no"?>
<!-- Created with Inkscape (http://www.inkscape.org/) -->

<svg
   width="48"
   height="48"
   viewBox="0 0 12.7 12.7"
   version="1.1"
   id="svg5"
   inkscape:version="1.2.1 (9c6d41e410, 2022-07-14)"
   sodipodi:docname="WideWordWanderer.svg"
   inkscape:export-filename="..\..\WideWordWanderer.png"
   inkscape:export-xdpi="96"
   inkscape:export-ydpi="96"
   xmlns:inkscape="http://www.inkscape.org/namespaces/inkscape"
   xmlns:sodipodi="http://sodipodi.sourceforge.net/DTD/sodipodi-0.dtd"
   xmlns="http://www.w3.org/2000/svg"
   xmlns:svg="http://www.w3.org/2000/svg">
  <sodipodi:namedview
     id="namedview7"
     pagecolor="#ffffff"
     bordercolor="#000000"
     borderopacity="0.25"
     inkscape:showpageshadow="2"
     inkscape:pageopacity="0.0"
     inkscape:pagecheckerboard="0"
     inkscape:deskcolor="#d1d1d1"
     inkscape:document-units="mm"
     showgrid="false"
     inkscape:zoom="8.2041846"
     inkscape:cx="9.9339549"
     inkscape:cy="27.364084"
     inkscape:window-width="1920"
     inkscape:window-height="1001"
     inkscape:window-x="-9"
     inkscape:window-y="-9"
     inkscape:window-maximized="1"
     inkscape:current-layer="layer1" />
  <defs
     id="defs2">
    <filter
       id="mask-powermask-path-effect1879_inverse"
       inkscape:label="filtermask-powermask-path-effect1879"
       style="color-interpolation-filters:sRGB"
       height="100"
       width="100"
       x="-50"
       y="-50">
      <feColorMatrix
         id="mask-powermask-path-effect1879_primitive1"
         values="1"
         type="saturate"
         result="fbSourceGraphic" />
      <feColorMatrix
         id="mask-powermask-path-effect1879_primitive2"
         values="-1 0 0 0 1 0 -1 0 0 1 0 0 -1 0 1 0 0 0 1 0 "
         in="fbSourceGraphic" />
    </filter>
    <filter
       id="mask-powermask-path-effect1925_inverse"
       inkscape:label="filtermask-powermask-path-effect1925"
       style="color-interpolation-filters:sRGB"
       height="100"
       width="100"
       x="-50"
       y="-50">
      <feColorMatrix
         id="mask-powermask-path-effect1925_primitive1"
         values="1"
         type="saturate"
         result="fbSourceGraphic" />
      <feColorMatrix
         id="mask-powermask-path-effect1925_primitive2"
         values="-1 0 0 0 1 0 -1 0 0 1 0 0 -1 0 1 0 0 0 1 0 "
         in="fbSourceGraphic" />
    </filter>
    <filter
       id="mask-powermask-path-effect2074_inverse"
       inkscape:label="filtermask-powermask-path-effect2074"
       style="color-interpolation-filters:sRGB"
       height="100"
       width="100"
       x="-50"
       y="-50">
      <feColorMatrix
         id="mask-powermask-path-effect2074_primitive1"
         values="1"
         type="saturate"
         result="fbSourceGraphic" />
      <feColorMatrix
         id="mask-powermask-path-effect2074_primitive2"
         values="-1 0 0 0 1 0 -1 0 0 1 0 0 -1 0 1 0 0 0 1 0 "
         in="fbSourceGraphic" />
    </filter>
  </defs>
  <g
     inkscape:label="Layer 1"
     inkscape:groupmode="layer"
     id="layer1">
    <path
       id="path1983"
       style="stroke:#ff6666;stroke-width:0"
       d="m 3.349666,1.1536782 v 0.00103 l 5.168e-4,-0.00103 z m 0,0.00103 -2.99981689,5.1950317 C 1.0672109,5.9355367 1.9845283,6.1812343 2.3988197,6.8985472 2.8130265,7.615909 2.5673289,8.5332264 1.850016,8.9475178 v 5.167e-4 C 2.5673778,8.5338278 3.4846951,8.7795254 3.8989865,9.4968382 4.3133666,10.213929 4.068154,11.131163 3.3512163,11.545808 H 9.3487831 C 8.6318454,11.131163 8.3866328,10.213929 8.8010129,9.4968382 9.2153044,8.7795252 10.132621,8.5338276 10.849984,8.9480345 V 8.9475178 C 10.13267,8.5332265 9.8869729,7.6159091 10.30118,6.8985472 10.715472,6.1812341 11.632788,5.9355364 12.350151,6.3497435 L 9.3503334,1.1547118 C 9.3498552,1.9828648 8.6783198,2.6539377 7.8501665,2.6538451 7.0218117,2.6536521 6.350424,1.9820331 6.3505165,1.1536782 h -0.00103 C 6.3495754,1.9820331 5.6781877,2.6536521 4.8498329,2.6538451 4.0216796,2.6539377 3.3501442,1.9828648 3.349666,1.1547118 Z m 6.0006674,0 v -0.00103 h -5.168e-4 z m -0.00155,10.3910958 0.00103,5.17e-4 v -5.17e-4 z m -5.9975668,0 h -0.00103 v 5.17e-4 z M 6.3499997,3.8496377 A 2.4999994,2.4999994 0 0 1 8.8501055,6.3497435 2.4999994,2.4999994 0 0 1 6.3499997,8.8498493 2.4999994,2.4999994 0 0 1 3.8498939,6.3497435 2.4999994,2.4999994 0 0 1 6.3499997,3.8496377 Z" />
  </g>
</svg>
